# xmcd CD database file generated by OrangeCD 6.1
#
# Track frame offsets:
#	150
#	13837
#	35927
#	49675
#	66007
#	88330
#	104477
#	123317
#	136327
#	152085
#	167707
#	183355
#
# Disc length: 3007 seconds
#
# Revision: 0
# Processed by: cddbd v1.5.2PL0 Copyright (c) Steve Scherf et al.
# Submitted via: OrangeCD 6.1
#
DISCID=a70bbd0c
DTITLE=Lee Ann Womack - I Hope You Dance
DYEAR=1900
DGENRE=
TTITLE0=The Healing Kind
TTITLE1=I Hope You Dance (Special Guest Appearance Sons Of The Desert)
TTITLE2=After I Fall
TTITLE3=Stronger Than I Am
TTITLE4=I Know Why The River Runs
TTITLE5=Why They Call It Falling
TTITLE6=Ashes By Now
TTITLE7=Thinkin' With My Heart Again
TTITLE8=I Feel Like I'm Forgetting Something
TTITLE9=Lonely Too
TTITLE10=Does My Ring Burn Your Finger
TTITLE11=Lord I Hope This Day Is Good
EXTD=
EXTT0=
EXTT1=
EXTT2=
EXTT3=
EXTT4=
EXTT5=
EXTT6=
EXTT7=
EXTT8=
EXTT9=
EXTT10=
EXTT11=
PLAYORDER=
